<?xml version="1.0" encoding="UTF-8"?><svg xmlns="http://www.w3.org/2000/svg" xmlns:xlink="http://www.w3.org/1999/xlink" viewBox="0 0 774.36 404.78"><defs><style>.g{fill:url(#e);}.h{fill:url(#f);}.i{fill:#004b87;}.j{fill:#0061a0;}.k{fill:#5bc4f1;}.l{fill-rule:evenodd;}</style><radialGradient id="e" cx="426.26" cy="1072.19" fx="400.33" fy="1072.19" r="57.14" gradientTransform="translate(122.05 -978.64) rotate(.6) scale(1 1.08)" gradientUnits="userSpaceOnUse"><stop offset="0" stop-color="#419bd7"/><stop offset="1" stop-color="#0061a0"/></radialGradient><radialGradient id="f" cx="244.05" cy="175.99" fx="244.05" fy="175.99" r="40.47" gradientTransform="matrix(1, 0, 0, 1, 0, 0)" gradientUnits="userSpaceOnUse"><stop offset="0" stop-color="#419bd7"/><stop offset="1" stop-color="#0061a0"/></radialGradient></defs><g id="a"/><g id="b"><g id="c"/></g><g id="d"><g><g><path class="k" d="M544.97,261.18c-.08,0-.16,0-.24-.01l-64.97-7.98c-.88-.11-1.58-.78-1.73-1.65-.15-.87,.29-1.74,1.09-2.13l47.8-23.57c.36-.18,.77-.24,1.18-.19l62.71,9.21c.87,.13,1.55,.8,1.69,1.67,.14,.87-.31,1.72-1.09,2.1l-45.53,22.34c-.28,.14-.58,.2-.88,.2Zm-58.08-11.15l57.73,7.09,39.21-19.24-55.72-8.18-41.23,20.34Z"/><path class="k" d="M480,253.21c-1.1,0-2-.9-2-2v-86.78c0-1.1,.9-2,2-2s2,.9,2,2v86.78c0,1.1-.9,2-2,2Z"/><path class="k" d="M528.04,229.63c-1.1,0-2-.9-2-2v-86.78c0-1.1,.9-2,2-2s2,.9,2,2v86.78c0,1.1-.9,2-2,2Z"/><path class="g" d="M556.12,229.26c-2.46,12.05-38.75,13.32-41-.43l-6.21-37.91,54.22,.57s-4.44,25.21-7,37.78Z"/><path class="j" d="M568.8,189.87c-.06,6.1-62.52,9.64-63.51-.67-.46-4.84,.2-4.17,.12-11.16-.1-8.21,63.66-9.18,63.51,.67-.11,7.49-.05,5.07-.12,11.16Z"/><ellipse class="i" cx="535.87" cy="180.14" rx="25.59" ry="4.58"/><path class="k" d="M544.97,174.4c-.08,0-.16,0-.24-.01l-64.97-7.98c-.88-.11-1.58-.78-1.73-1.65-.15-.87,.29-1.74,1.09-2.13l47.8-23.57c.36-.18,.77-.24,1.18-.19l62.71,9.21c.87,.13,1.55,.8,1.69,1.67,.14,.87-.31,1.72-1.09,2.1l-45.53,22.34c-.28,.14-.58,.2-.88,.2Zm-58.08-11.15l57.73,7.09,39.21-19.24-55.72-8.18-41.23,20.34Z"/><path class="k" d="M590.51,238.84c-1.1,0-2-.9-2-2v-86.78c0-1.1,.9-2,2-2s2,.9,2,2v86.78c0,1.1-.9,2-2,2Z"/><path class="k" d="M545.43,261.18c-1.1,0-2-.9-2-2v-86.78c0-1.1,.9-2,2-2s2,.9,2,2v86.78c0,1.1-.9,2-2,2Z"/></g><g><path class="k" d="M258.09,261.18c-.08,0-.16,0-.24-.01l-64.97-7.98c-.88-.11-1.58-.78-1.73-1.65-.15-.87,.29-1.74,1.09-2.13l47.8-23.57c.36-.18,.77-.24,1.18-.19l62.71,9.21c.87,.13,1.55,.8,1.69,1.67,.14,.87-.31,1.72-1.09,2.1l-45.53,22.34c-.28,.14-.58,.2-.88,.2Zm-58.08-11.15l57.73,7.09,39.21-19.24-55.72-8.18-41.23,20.34Z"/><path class="k" d="M241.16,229.63c-1.1,0-2-.9-2-2v-86.78c0-1.1,.9-2,2-2s2,.9,2,2v86.78c0,1.1-.9,2-2,2Z"/><path class="h" d="M244.58,170.94c-13.79,0-24.97,4.84-24.97,9.46v46.34c0,4.62,11.18,9.46,24.97,9.46s24.97-4.84,24.97-9.46v-46.34c0-4.62-11.18-9.46-24.97-9.46Z"/><ellipse class="i" cx="244.72" cy="180.34" rx="19.64" ry="5.76"/><path class="k" d="M193.12,253.21c-1.1,0-2-.9-2-2v-86.78c0-1.1,.9-2,2-2s2,.9,2,2v86.78c0,1.1-.9,2-2,2Z"/><path class="k" d="M258.09,174.4c-.08,0-.16,0-.24-.01l-64.97-7.98c-.88-.11-1.58-.78-1.73-1.65-.15-.87,.29-1.74,1.09-2.13l47.8-23.57c.36-.18,.77-.24,1.18-.19l62.71,9.21c.87,.13,1.55,.8,1.69,1.67,.14,.87-.31,1.72-1.09,2.1l-45.53,22.34c-.28,.14-.58,.2-.88,.2Zm-58.08-11.15l57.73,7.09,39.21-19.24-55.72-8.18-41.23,20.34Z"/><path class="k" d="M303.62,238.84c-1.1,0-2-.9-2-2v-86.78c0-1.1,.9-2,2-2s2,.9,2,2v86.78c0,1.1-.9,2-2,2Z"/><path class="k" d="M258.55,261.18c-1.1,0-2-.9-2-2v-86.78c0-1.1,.9-2,2-2s2,.9,2,2v86.78c0,1.1-.9,2-2,2Z"/><path class="j" d="M266.54,190.09s-.07-.01-.11-.01c-.01,0-.02,0-.03,0-.02,0-.04,0-.07,0h0c-1.54,.06-2.78,1.32-2.78,2.88s1.29,2.88,2.88,2.88c13.38,.9,16.01,22.62-.25,23.38h-.02c-1.59,0-2.88,1.29-2.88,2.88s1.23,2.81,2.77,2.87h0s.05,0,.07,0c.01,0,.02,0,.03,0,.03,0,.06,0,.09,0,24.36-.19,20.93-34.64,.29-34.87Z"/></g><path class="l" d="M507.75,125.63c-12.54,.85-65.85,3.98-76.17,33.94-3.73,10.81-1.64,25.86,.96,36.85,5.03,21.2,10.86,37.82,22.18,52.36,20.43,26.24,81.68,39.01,119.56,21.33,29.27-13.65,65.35-84.55,35.68-124.12-17.14-22.85-61.91-20.99-102.21-20.36Zm-346.97,20.17c-29.67,39.57,6.41,110.47,35.68,124.12,37.88,17.67,99.14,4.91,119.56-21.33,11.32-14.54,17.15-31.16,22.18-52.36,2.61-10.98,4.69-26.03,.96-36.85-10.32-29.96-63.63-33.08-76.17-33.94-40.3-.63-85.07-2.49-102.21,20.36Zm506.06-28.65c-1.61,12.75-3.21,25.5-4.82,38.24-26.53,11.36-20.65,49.68-30.24,77.14-4.1,11.74-8.01,21.16-15.07,30.13-43.3,54.96-153.6,46.24-188.02-13.06-8.26-14.22-23.04-58.29-35.68-64.36-2.95-1.74-6.08-2.32-9.28-2.25-2.05,.29-4.06,.92-5.99,2.06-12.64,6.07-27.42,50.14-35.68,64.36-34.43,59.3-144.72,68.02-188.02,13.06-7.07-8.97-11.48-18.4-15.58-30.14-9.59-27.45-3.2-65.77-29.74-77.13-1.61-12.75-3.21-25.5-4.82-38.24,52.43-7.63,121.05-19.49,180.31-8.39,35.63,6.67,60.42,19.93,94.67,25.4,2.06,.33,4.18,.61,6.32,.87,2.52-.18,5-.45,7.39-.83,34.24-5.47,58.33-18.58,93.96-25.25,59.26-11.09,127.88,.76,180.31,8.39Z"/></g></g></svg>